<?xml version="1.0" standalone="no"?>
<!DOCTYPE svg PUBLIC "-//W3C//DTD SVG 20010904//EN"
 "http://www.w3.org/TR/2001/REC-SVG-20010904/DTD/svg10.dtd">
<svg version="1.0" xmlns="http://www.w3.org/2000/svg"
 width="420.000000pt" height="594.000000pt" viewBox="0 0 420.000000 594.000000"
 preserveAspectRatio="xMidYMid meet">

<g transform="translate(0.000000,594.000000) scale(0.100000,-0.100000)"
fill="#000000" stroke="none">
<path d="M1512 3728 c-364 -51 -502 -499 -232 -752 77 -73 164 -109 275 -114
78 -3 99 0 160 22 61 22 71 24 81 11 15 -20 160 -22 166 -2 2 6 3 116 2 242
l-1 230 -197 3 -196 2 0 -85 0 -85 81 0 80 0 -3 -47 c-3 -42 -6 -48 -40 -66
-72 -36 -172 -32 -223 11 -62 52 -105 147 -99 218 6 66 53 145 109 182 47 31
55 33 120 30 57 -3 78 -9 112 -32 37 -25 44 -26 62 -14 31 22 121 108 121 116
0 14 -94 80 -142 101 -25 11 -68 22 -95 26 -26 4 -55 8 -63 9 -8 2 -43 -1 -78
-6z"/>
<path d="M3313 3704 c-142 -31 -251 -115 -314 -241 -28 -57 -34 -82 -37 -155
-8 -152 44 -265 165 -364 80 -66 148 -87 274 -87 101 -1 110 1 181 35 180 86
276 260 249 454 -13 89 -53 167 -121 235 -67 68 -135 104 -231 124 -82 17 -84
17 -166 -1z m171 -205 c82 -38 126 -110 126 -207 0 -104 -49 -179 -143 -220
-90 -39 -220 19 -264 118 -24 54 -22 156 4 206 57 107 175 151 277 103z"/>
<path d="M2140 3291 l0 -411 115 0 115 0 0 121 c0 96 3 120 14 117 7 -2 57
-56 111 -120 l98 -118 134 0 134 0 -93 108 c-50 59 -100 117 -110 128 -19 21
-19 21 19 39 132 61 195 188 163 326 -23 99 -63 155 -140 195 -31 17 -64 19
-297 22 l-263 3 0 -410z m446 211 c45 -36 55 -82 29 -132 -24 -46 -62 -60
-160 -60 l-85 0 0 105 0 105 98 0 c77 0 101 -4 118 -18z"/>
<path d="M573 3648 c-11 -24 -43 -104 -72 -178 -50 -130 -123 -313 -140 -355
-45 -107 -91 -228 -91 -241 0 -12 18 -14 116 -12 128 3 121 0 144 73 11 36 39
112 75 205 7 19 25 67 39 105 50 140 46 132 57 113 10 -19 50 -126 105 -283
20 -55 40 -104 45 -109 5 -6 9 -17 9 -26 0 -10 7 -31 16 -48 l15 -32 120 0
119 0 -14 33 c-25 58 -43 101 -65 162 -22 58 -29 77 -65 158 -9 21 -16 42 -16
47 0 5 -11 33 -24 62 -13 29 -31 73 -39 98 -9 25 -36 95 -60 155 l-44 110
-105 3 -106 3 -19 -43z"/>
<path d="M2301 2736 c-49 -18 -74 -55 -74 -111 0 -34 6 -51 23 -70 26 -28 91
-49 120 -40 11 4 30 -1 42 -9 12 -9 30 -16 40 -16 23 0 23 29 1 45 -15 11 -15
14 0 36 39 55 9 136 -59 165 -39 16 -48 16 -93 0z m98 -62 c23 -29 28 -69 10
-80 -6 -3 -16 -1 -22 5 -6 6 -22 11 -35 11 -24 0 -24 -1 -8 -25 16 -24 15 -25
-3 -25 -33 0 -64 34 -63 69 2 65 82 95 121 45z"/>
<path d="M3803 2735 c-62 -28 -89 -98 -61 -159 16 -36 88 -70 130 -61 69 14
68 12 68 71 l0 54 -45 0 c-38 0 -45 -3 -45 -19 0 -12 8 -21 22 -23 30 -4 34
-26 6 -37 -43 -16 -97 20 -98 65 0 12 10 33 21 48 19 24 28 27 66 25 33 -2 47
1 54 13 7 13 2 18 -23 27 -39 14 -55 13 -95 -4z"/>
<path d="M470 2630 l0 -110 25 0 c23 0 25 4 25 40 l0 40 54 0 c49 0 54 2 49
20 -4 17 -14 20 -54 20 -48 0 -49 1 -49 30 l0 30 60 0 c53 0 60 2 60 20 0 18
-7 20 -85 20 l-85 0 0 -110z"/>
<path d="M721 2718 c-16 -40 -49 -122 -65 -160 l-16 -38 29 0 c23 0 30 5 33
23 3 19 10 22 56 25 48 3 53 1 62 -22 7 -19 17 -26 35 -26 14 0 25 3 25 8 0 4
-19 53 -42 109 -42 100 -44 103 -76 103 -25 0 -35 -5 -41 -22z m60 -73 l17
-45 -34 0 c-19 0 -34 3 -34 6 0 16 24 84 29 84 3 0 13 -20 22 -45z"/>
<path d="M910 2720 c0 -18 7 -20 60 -20 33 0 60 -3 60 -7 0 -3 -27 -37 -60
-74 -84 -95 -82 -99 40 -99 93 0 100 1 100 20 0 18 -7 20 -67 20 -38 0 -63 4
-57 8 27 19 114 135 114 153 0 17 -8 19 -95 19 -88 0 -95 -1 -95 -20z"/>
<path d="M1150 2630 l0 -110 90 0 c83 0 90 1 90 20 0 18 -7 20 -66 20 -62 0
-65 1 -62 23 3 19 10 22 56 25 43 3 52 6 52 22 0 16 -9 19 -52 22 -46 3 -53 6
-56 26 -3 21 0 22 62 22 59 0 66 2 66 20 0 19 -7 20 -90 20 l-90 0 0 -110z"/>
<path d="M1370 2630 l0 -110 25 0 c24 0 25 2 25 73 1 66 2 70 15 52 8 -11 23
-29 33 -40 10 -11 29 -35 42 -52 17 -24 32 -33 52 -33 l28 0 0 110 0 110 -25
0 c-23 0 -24 -3 -27 -72 l-3 -72 -58 72 c-43 54 -64 72 -82 72 l-25 0 0 -110z"/>
<path d="M1640 2630 l0 -110 66 0 c107 0 154 34 154 113 0 69 -57 107 -160
107 l-60 0 0 -110z m145 45 c49 -48 24 -104 -49 -112 l-46 -6 0 72 0 71 35 0
c25 0 44 -8 60 -25z"/>
<path d="M1953 2723 c-3 -10 -24 -58 -45 -107 -21 -49 -38 -91 -38 -93 0 -2
13 -3 29 -3 22 0 30 6 35 25 6 23 11 25 56 25 45 0 52 -3 60 -25 7 -18 17 -25
35 -25 14 0 25 3 25 6 0 5 -29 77 -74 187 -9 22 -17 27 -44 27 -22 0 -35 -6
-39 -17z m60 -78 c9 -20 17 -38 17 -40 0 -3 -16 -5 -35 -5 -39 0 -40 3 -24 49
14 40 21 39 42 -4z"/>
<path d="M2510 2675 c0 -87 19 -132 65 -151 63 -26 132 2 156 63 5 13 9 53 9
89 l0 64 -30 0 -30 0 0 -80 c0 -75 -2 -81 -24 -91 -14 -7 -36 -9 -50 -5 -29 7
-46 53 -46 129 0 43 -2 47 -25 47 -24 0 -25 -2 -25 -65z"/>
<path d="M2806 2654 c-52 -124 -54 -134 -23 -134 18 0 27 7 31 25 6 22 11 25
56 25 44 0 52 -3 62 -25 7 -16 19 -25 35 -25 12 0 23 4 23 9 0 8 -16 52 -44
116 -7 17 -19 45 -26 63 -10 27 -17 32 -45 32 -32 0 -34 -3 -69 -86z m103 -46
c1 -5 -15 -8 -34 -8 -40 0 -41 3 -19 56 l17 39 18 -40 c9 -22 18 -43 18 -47z"/>
<path d="M2970 2720 c0 -17 7 -20 40 -20 l40 0 0 -90 0 -90 30 0 30 0 0 90 0
90 41 0 c33 0 40 3 35 16 -3 9 -6 18 -6 20 0 2 -47 4 -105 4 -98 0 -105 -1
-105 -20z"/>
<path d="M3220 2630 l0 -110 25 0 25 0 0 110 0 110 -25 0 -25 0 0 -110z"/>
<path d="M3436 2725 c-3 -8 -10 -54 -16 -102 -6 -48 -14 -91 -17 -96 -3 -4 8
-7 23 -5 27 3 30 7 38 66 5 34 12 62 16 62 5 0 16 -22 26 -50 16 -44 21 -50
46 -50 24 0 32 7 48 45 11 25 24 45 29 45 6 0 13 -27 17 -60 6 -56 8 -60 32
-60 24 0 25 1 18 58 -20 162 -19 157 -48 160 -25 3 -30 -3 -61 -69 l-33 -72
-31 72 c-27 60 -36 71 -56 71 -14 0 -27 -7 -31 -15z"/>
</g>
</svg>
